<?xml version="1.0" standalone="no"?>
<!DOCTYPE svg PUBLIC "-//W3C//DTD SVG 20010904//EN"
 "http://www.w3.org/TR/2001/REC-SVG-20010904/DTD/svg10.dtd">
<svg version="1.0" xmlns="http://www.w3.org/2000/svg"
 width="1024.000000pt" height="1024.000000pt" viewBox="0 0 1024.000000 1024.000000"
 preserveAspectRatio="xMidYMid meet">

<g transform="translate(0.000000,1024.000000) scale(0.100000,-0.100000)"
fill="#003932" stroke="none">
<path d="M6088 7885 c-51 -29 -63 -84 -27 -129 11 -14 75 -54 142 -87 198 -99
305 -175 458 -328 253 -252 384 -490 461 -835 19 -85 23 -130 23 -286 0 -212
-10 -284 -65 -450 -164 -502 -576 -865 -1040 -915 l-64 -7 80 78 c45 44 95 97
112 119 25 31 34 37 44 27 17 -17 74 -15 104 4 27 18 74 92 74 116 0 9 -22 32
-48 51 -63 45 -94 108 -96 195 l-1 63 74 25 c141 48 218 113 273 230 25 54 30
77 30 139 0 112 -32 173 -170 318 -138 146 -157 182 -177 342 -37 287 -140
515 -339 747 -192 224 -522 424 -847 512 -316 86 -638 96 -954 30 -576 -121
-1081 -464 -1487 -1010 -72 -97 -202 -312 -266 -439 -138 -276 -253 -671 -288
-995 -19 -175 -14 -551 11 -730 18 -133 72 -363 117 -500 161 -491 433 -916
818 -1275 398 -372 954 -625 1371 -625 237 0 481 88 769 277 63 42 237 166
385 277 149 110 338 246 421 303 547 371 1152 596 1706 636 l173 12 43 100
c296 682 336 1414 116 2097 -178 550 -515 1049 -954 1412 -199 165 -474 329
-753 450 -145 63 -189 73 -229 51z m-2220 -784 c130 -67 209 -204 152 -261
-36 -36 -88 -27 -148 25 -48 40 -102 65 -142 65 -37 0 -94 -24 -127 -53 -93
-82 -96 -207 -6 -307 25 -28 56 -53 69 -56 13 -3 24 -7 24 -9 0 -1 -17 -33
-38 -71 -33 -60 -41 -69 -62 -66 -75 10 -185 104 -229 196 -64 131 -41 315 53
431 43 52 103 93 169 117 75 27 224 21 285 -11z m825 -265 c21 -8 48 -22 59
-33 25 -21 68 -110 68 -138 0 -42 -22 -97 -53 -132 -78 -89 -205 -85 -281 10
-61 76 -42 211 38 265 61 42 108 49 169 28z m165 -637 c189 -20 366 -70 505
-139 159 -80 247 -157 350 -305 30 -45 78 -102 107 -129 53 -50 148 -99 214
-112 l39 -7 -7 -58 c-8 -82 -40 -144 -112 -217 -45 -45 -85 -73 -146 -102
-142 -68 -231 -79 -449 -54 -49 5 -59 3 -83 -17 -48 -42 -36 -113 27 -156 58
-40 261 -54 367 -26 50 13 3 -23 -92 -70 -198 -99 -380 -141 -618 -141 -297 1
-534 65 -744 203 -93 60 -115 68 -152 49 -44 -21 -68 -61 -60 -101 19 -101
273 -280 472 -332 38 -10 70 -19 71 -20 1 0 -4 -37 -12 -80 -28 -156 -15 -348
35 -515 78 -261 269 -517 497 -664 77 -50 209 -116 231 -116 59 0 -86 -117
-233 -190 -296 -145 -687 -155 -1029 -26 -174 66 -381 195 -519 325 -82 76
-208 231 -283 346 -217 333 -325 751 -294 1137 13 169 23 224 65 379 47 170
101 289 201 442 247 376 657 627 1132 692 120 16 391 19 520 4z m1457 -130
c77 -29 155 -104 155 -149 0 -45 -23 -47 -76 -6 -64 49 -110 61 -244 61 -99 0
-122 -4 -165 -23 -27 -13 -62 -34 -76 -48 -65 -62 -108 7 -49 79 89 107 295
146 455 86z"/>
<path d="M4815 5794 c-233 -42 -534 -177 -625 -281 -28 -31 -31 -42 -27 -76 7
-50 45 -90 84 -90 18 0 58 19 103 48 200 131 439 208 681 220 144 8 150 9 182
41 45 44 34 110 -23 139 -38 20 -262 19 -375 -1z"/>
<path d="M5280 5470 c-124 -30 -324 -118 -435 -192 -149 -100 -185 -175 -118
-243 43 -43 82 -35 182 38 141 103 246 155 398 197 43 12 88 31 100 42 49 46
32 127 -32 154 -38 15 -44 16 -95 4z"/>
<path d="M7063 3285 c-17 -7 -43 -31 -57 -53 -14 -22 -31 -44 -38 -49 -7 -4
-103 -10 -213 -13 -225 -6 -257 -14 -296 -76 -49 -80 -26 -179 54 -232 l40
-27 266 -3 266 -3 45 30 c25 16 74 56 110 88 65 58 270 274 310 326 l21 27
-238 0 c-180 -1 -246 -4 -270 -15z"/>
<path d="M5805 2491 c-144 -7 -185 -26 -217 -99 -46 -104 36 -222 154 -222 54
0 206 42 383 106 88 31 180 63 205 69 28 8 46 19 48 29 6 31 -19 75 -57 98
-34 21 -48 23 -216 24 -99 1 -234 -1 -300 -5z"/>
</g>
</svg>
