<?xml version="1.0" encoding="utf-8"?>
<!-- Generator: Adobe Illustrator 27.9.0, SVG Export Plug-In . SVG Version: 6.00 Build 0)  -->
<svg version="1.1" id="Calque_1" xmlns="http://www.w3.org/2000/svg" xmlns:xlink="http://www.w3.org/1999/xlink" x="0px" y="0px"
	 viewBox="0 0 612 576" style="enable-background:new 0 0 612 576;" xml:space="preserve">
<style type="text/css">
	.st0{fill:#F0F6FC;}
</style>
<g transform="translate(0.000000,1024.000000) scale(0.100000,-0.100000)">
	<path class="st0" d="M4024.7,10211.7c-51-29-63-84-27-129c11-14,75-54,142-87c198-99,305-175,458-328c253-252,384-490,461-835
		c19-85,23-130,23-286c0-212-10-284-65-450c-164-502-576-865-1040-915l-64-7l80,78c45,44,95,97,112,119c25,31,34,37,44,27
		c17-17,74-15,104,4c27,18,74,92,74,116c0,9-22,32-48,51c-63,45-94,108-96,195l-1,63l74,25c141,48,218,113,273,230
		c25,54,30,77,30,139c0,112-32,173-170,318c-138,146-157,182-177,342c-37,287-140,515-339,747c-192,224-522,424-847,512
		c-316,86-638,96-954,30c-576-121-1081-464-1487-1010c-72-97-202-312-266-439c-138-276-253-671-288-995c-19-175-14-551,11-730
		c18-133,72-363,117-500c161-491,433-916,818-1275c398-372,954-625,1371-625c237,0,481,88,769,277c63,42,237,166,385,277
		c149,110,338,246,421,303c547,371,1152,596,1706,636l173,12l43,100c296,682,336,1414,116,2097c-178,550-515,1049-954,1412
		c-199,165-474,329-753,450C4108.7,10223.7,4064.7,10233.7,4024.7,10211.7z M1804.7,9427.7c130-67,209-204,152-261
		c-36-36-88-27-148,25c-48,40-102,65-142,65c-37,0-94-24-127-53c-93-82-96-207-6-307c25-28,56-53,69-56s24-7,24-9c0-1-17-33-38-71
		c-33-60-41-69-62-66c-75,10-185,104-229,196c-64,131-41,315,53,431c43,52,103,93,169,117
		C1594.7,9465.7,1743.7,9459.7,1804.7,9427.7z M2629.7,9162.7c21-8,48-22,59-33c25-21,68-110,68-138c0-42-22-97-53-132
		c-78-89-205-85-281,10c-61,76-42,211,38,265C2521.7,9176.7,2568.7,9183.7,2629.7,9162.7z M2794.7,8525.7c189-20,366-70,505-139
		c159-80,247-157,350-305c30-45,78-102,107-129c53-50,148-99,214-112l39-7l-7-58c-8-82-40-144-112-217c-45-45-85-73-146-102
		c-142-68-231-79-449-54c-49,5-59,3-83-17c-48-42-36-113,27-156c58-40,261-54,367-26c50,13,3-23-92-70c-198-99-380-141-618-141
		c-297,1-534,65-744,203c-93,60-115,68-152,49c-44-21-68-61-60-101c19-101,273-280,472-332c38-10,70-19,71-20c1,0-4-37-12-80
		c-28-156-15-348,35-515c78-261,269-517,497-664c77-50,209-116,231-116c59,0-86-117-233-190c-296-145-687-155-1029-26
		c-174,66-381,195-519,325c-82,76-208,231-283,346c-217,333-325,751-294,1137c13,169,23,224,65,379c47,170,101,289,201,442
		c247,376,657,627,1132,692C2394.7,8537.7,2665.7,8540.7,2794.7,8525.7z M4251.7,8395.7c77-29,155-104,155-149s-23-47-76-6
		c-64,49-110,61-244,61c-99,0-122-4-165-23c-27-13-62-34-76-48c-65-62-108,7-49,79C3885.7,8416.7,4091.7,8455.7,4251.7,8395.7z"/>
	<path class="st0" d="M2751.7,8120.7c-233-42-534-177-625-281c-28-31-31-42-27-76c7-50,45-90,84-90c18,0,58,19,103,48
		c200,131,439,208,681,220c144,8,150,9,182,41c45,44,34,110-23,139C3088.7,8141.7,2864.7,8140.7,2751.7,8120.7z"/>
	<path class="st0" d="M3216.7,7796.7c-124-30-324-118-435-192c-149-100-185-175-118-243c43-43,82-35,182,38c141,103,246,155,398,197
		c43,12,88,31,100,42c49,46,32,127-32,154C3273.7,7807.7,3267.7,7808.7,3216.7,7796.7z"/>
	<path class="st0" d="M4999.7,5611.7c-17-7-43-31-57-53s-31-44-38-49c-7-4-103-10-213-13c-225-6-257-14-296-76c-49-80-26-179,54-232
		l40-27l266-3l266-3l45,30c25,16,74,56,110,88c65,58,270,274,310,326l21,27h-238C5089.7,5625.7,5023.7,5622.7,4999.7,5611.7z"/>
	<path class="st0" d="M3741.7,4817.7c-144-7-185-26-217-99c-46-104,36-222,154-222c54,0,206,42,383,106c88,31,180,63,205,69
		c28,8,46,19,48,29c6,31-19,75-57,98c-34,21-48,23-216,24C3942.7,4823.7,3807.7,4821.7,3741.7,4817.7z"/>
</g>
</svg>
